<svg width="152" height="26" viewBox="0 0 152 26" fill="none" xmlns="http://www.w3.org/2000/svg">
<path d="M11.736 10.888C0.984 10.888 0.858 25.504 12.744 25.504C15.39 25.504 18.372 24.874 20.934 23.908V10.426C20.934 2.11 9.006 0.471998 4.512 6.688L7.368 9.334C9.678 6.772 15.264 6.478 15.264 11.56C14.214 11.014 12.87 10.888 11.736 10.888ZM15.096 20.716C14.298 20.926 13.5 21.01 12.66 21.01C8.208 21.01 7.914 15.508 12.45 15.382C13.458 15.34 14.466 15.508 15.096 15.76V20.716ZM31.9157 10.888C21.1637 10.888 21.0377 25.504 32.9237 25.504C35.5697 25.504 38.5517 24.874 41.1137 23.908V10.426C41.1137 2.11 29.1857 0.471998 24.6917 6.688L27.5477 9.334C29.8577 6.772 35.4437 6.478 35.4437 11.56C34.3937 11.014 33.0497 10.888 31.9157 10.888ZM35.2757 20.716C34.4777 20.926 33.6797 21.01 32.8397 21.01C28.3877 21.01 28.0937 15.508 32.6297 15.382C33.6377 15.34 34.6457 15.508 35.2757 15.76V20.716ZM44.1328 21.724C46.1908 24.454 48.9208 25.42 51.9448 25.42C56.0188 25.42 59.7988 23.026 59.7988 18.28C59.7988 14.164 56.3128 12.61 53.5408 11.896C52.6168 11.728 50.5168 10.972 50.6428 9.67C50.8948 6.814 54.8428 7.99 56.1448 9.25L59.0428 5.26C56.8168 3.454 54.0868 2.95 52.1128 2.992C42.9988 3.118 41.5288 14.878 51.8188 16.642C53.7928 16.936 54.4648 18.154 53.9188 19.414C53.1628 21.178 49.4668 20.38 46.9048 17.944L44.1328 21.724ZM62.5481 25H68.2601V8.746C69.6461 7.234 73.3421 7.906 73.3421 9.964V25H78.9281V10.048C78.9281 7.57 84.0941 7.486 84.0941 10.09V25H89.8901V10.216C89.8901 5.26 85.7741 2.782 81.7841 2.782C79.7261 2.782 77.5421 3.622 76.1561 5.512C74.9801 3.286 72.5441 2.572 70.3181 2.53C67.4621 2.488 64.4381 3.58 62.5481 5.218V25ZM100.74 10.888C89.9879 10.888 89.8619 25.504 101.748 25.504C104.394 25.504 107.376 24.874 109.938 23.908V10.426C109.938 2.11 98.0099 0.471998 93.5159 6.688L96.3719 9.334C98.6819 6.772 104.268 6.478 104.268 11.56C103.218 11.014 101.874 10.888 100.74 10.888ZM104.1 20.716C103.302 20.926 102.504 21.01 101.664 21.01C97.2119 21.01 96.9179 15.508 101.454 15.382C102.462 15.34 103.47 15.508 104.1 15.76V20.716ZM120.92 10.888C110.168 10.888 110.042 25.504 121.928 25.504C124.574 25.504 127.556 24.874 130.118 23.908V10.426C130.118 2.11 118.19 0.471998 113.696 6.688L116.552 9.334C118.862 6.772 124.448 6.478 124.448 11.56C123.398 11.014 122.054 10.888 120.92 10.888ZM124.28 20.716C123.482 20.926 122.684 21.01 121.844 21.01C117.392 21.01 117.098 15.508 121.634 15.382C122.642 15.34 123.65 15.508 124.28 15.76V20.716ZM134.366 25H140.204V8.2C142.304 7.024 145.916 7.528 145.916 10.51V25H151.712V10.468C151.712 4.756 147.134 2.53 142.22 2.53C139.574 2.53 136.76 3.244 134.366 4.42V25Z" fill="white"/>
<path d="M20.934 23.908L21.1104 24.3758L21.434 24.2538V23.908H20.934ZM4.512 6.688L4.1068 6.39505L3.84739 6.75387L4.17219 7.05478L4.512 6.688ZM7.368 9.334L7.02819 9.70078L7.39997 10.0452L7.73934 9.66882L7.368 9.334ZM15.264 11.56L15.0333 12.0036L15.764 12.3836V11.56H15.264ZM15.096 20.716L15.2232 21.1995L15.596 21.1014V20.716H15.096ZM12.45 15.382L12.4639 15.8819L12.4708 15.8816L12.45 15.382ZM15.096 15.76H15.596V15.4215L15.2817 15.2958L15.096 15.76ZM11.736 10.388C8.92934 10.388 6.77111 11.3449 5.32831 12.8224C3.89007 14.2952 3.19199 16.2561 3.25098 18.2111C3.31 20.1673 4.12702 22.1234 5.72184 23.5885C7.31938 25.056 9.66704 26.004 12.744 26.004V25.004C9.87796 25.004 7.78412 24.125 6.39834 22.852C5.00986 21.5766 4.30175 19.8787 4.25052 18.1809C4.19926 16.4819 4.80581 14.7888 6.04376 13.5211C7.27714 12.2581 9.16666 11.388 11.736 11.388V10.388ZM12.744 26.004C15.4609 26.004 18.5029 25.359 21.1104 24.3758L20.7576 23.4402C18.2411 24.389 15.3191 25.004 12.744 25.004V26.004ZM21.434 23.908V10.426H20.434V23.908H21.434ZM21.434 10.426C21.434 5.96334 18.2116 3.31981 14.5014 2.61625C10.8102 1.91629 6.49101 3.09727 4.1068 6.39505L4.9172 6.98094C7.02699 4.06273 10.9188 2.95471 14.3151 3.59874C17.6924 4.23918 20.434 6.57265 20.434 10.426H21.434ZM4.17219 7.05478L7.02819 9.70078L7.70781 8.96722L4.85181 6.32122L4.17219 7.05478ZM7.73934 9.66882C8.78344 8.51082 10.5919 7.85771 12.1113 8.07544C12.8583 8.18248 13.5103 8.49568 13.977 9.03507C14.4423 9.57292 14.764 10.3829 14.764 11.56H15.764C15.764 10.1961 15.3875 9.13708 14.7332 8.38081C14.0803 7.62607 13.1915 7.22001 12.2532 7.08556C10.4021 6.82029 8.26256 7.59518 6.99666 8.99918L7.73934 9.66882ZM15.4947 11.1164C14.3338 10.5127 12.8888 10.388 11.736 10.388V11.388C12.8512 11.388 14.0942 11.5153 15.0333 12.0036L15.4947 11.1164ZM14.9688 20.2325C14.2199 20.4295 13.4657 20.51 12.66 20.51V21.51C13.5343 21.51 14.3761 21.4225 15.2232 21.1995L14.9688 20.2325ZM12.66 20.51C10.6672 20.51 9.73341 19.312 9.68399 18.2206C9.65866 17.6612 9.85808 17.1008 10.2943 16.6705C10.7293 16.2413 11.4327 15.9105 12.4639 15.8818L12.4361 14.8822C11.1993 14.9165 10.2385 15.3207 9.59196 15.9586C8.94667 16.5953 8.64735 17.4341 8.68501 18.2659C8.76159 19.957 10.2008 21.51 12.66 21.51V20.51ZM12.4708 15.8816C13.4233 15.8419 14.3586 16.0035 14.9103 16.2242L15.2817 15.2958C14.5734 15.0125 13.4927 14.8381 12.4292 14.8824L12.4708 15.8816ZM14.596 15.76V20.716H15.596V15.76H14.596ZM41.1137 23.908L41.2901 24.3758L41.6137 24.2538V23.908H41.1137ZM24.6917 6.688L24.2865 6.39505L24.0271 6.75387L24.3519 7.05478L24.6917 6.688ZM27.5477 9.334L27.2079 9.70078L27.5797 10.0452L27.919 9.66882L27.5477 9.334ZM35.4437 11.56L35.213 12.0036L35.9437 12.3836V11.56H35.4437ZM35.2757 20.716L35.4029 21.1995L35.7757 21.1014V20.716H35.2757ZM32.6297 15.382L32.6436 15.8819L32.6505 15.8816L32.6297 15.382ZM35.2757 15.76H35.7757V15.4215L35.4614 15.2958L35.2757 15.76ZM31.9157 10.388C29.109 10.388 26.9508 11.3449 25.508 12.8224C24.0698 14.2952 23.3717 16.2561 23.4307 18.2111C23.4897 20.1673 24.3067 22.1234 25.9015 23.5885C27.4991 25.056 29.8467 26.004 32.9237 26.004V25.004C30.0576 25.004 27.9638 24.125 26.578 22.852C25.1895 21.5766 24.4814 19.8787 24.4302 18.1809C24.3789 16.4819 24.9855 14.7888 26.2234 13.5211C27.4568 12.2581 29.3463 11.388 31.9157 11.388V10.388ZM32.9237 26.004C35.6406 26.004 38.6826 25.359 41.2901 24.3758L40.9373 23.4402C38.4208 24.389 35.4988 25.004 32.9237 25.004V26.004ZM41.6137 23.908V10.426H40.6137V23.908H41.6137ZM41.6137 10.426C41.6137 5.96334 38.3913 3.31981 34.6811 2.61625C30.9899 1.91629 26.6707 3.09727 24.2865 6.39505L25.0969 6.98094C27.2067 4.06273 31.0985 2.95471 34.4948 3.59874C37.8721 4.23918 40.6137 6.57265 40.6137 10.426H41.6137ZM24.3519 7.05478L27.2079 9.70078L27.8875 8.96722L25.0315 6.32122L24.3519 7.05478ZM27.919 9.66882C28.9631 8.51082 30.7716 7.85771 32.291 8.07544C33.038 8.18248 33.69 8.49568 34.1566 9.03507C34.6219 9.57292 34.9437 10.3829 34.9437 11.56H35.9437C35.9437 10.1961 35.5672 9.13708 34.9129 8.38081C34.26 7.62607 33.3712 7.22001 32.4329 7.08556C30.5818 6.82029 28.4422 7.59518 27.1763 8.99918L27.919 9.66882ZM35.6744 11.1164C34.5135 10.5127 33.0685 10.388 31.9157 10.388V11.388C33.0309 11.388 34.2739 11.5153 35.213 12.0036L35.6744 11.1164ZM35.1484 20.2325C34.3996 20.4295 33.6454 20.51 32.8397 20.51V21.51C33.714 21.51 34.5558 21.4225 35.4029 21.1995L35.1484 20.2325ZM32.8397 20.51C30.8469 20.51 29.9131 19.312 29.8637 18.2206C29.8383 17.6612 30.0378 17.1008 30.474 16.6705C30.909 16.2413 31.6124 15.9105 32.6436 15.8818L32.6158 14.8822C31.379 14.9165 30.4182 15.3207 29.7716 15.9586C29.1264 16.5953 28.827 17.4341 28.8647 18.2659C28.9413 19.957 30.3805 21.51 32.8397 21.51V20.51ZM32.6505 15.8816C33.603 15.8419 34.5383 16.0035 35.09 16.2242L35.4614 15.2958C34.7531 15.0125 33.6723 14.8381 32.6089 14.8824L32.6505 15.8816ZM34.7757 15.76V20.716H35.7757V15.76H34.7757ZM44.1328 21.724L43.7296 21.4283L43.5097 21.7281L43.7335 22.025L44.1328 21.724ZM53.5408 11.896L53.6655 11.4118L53.648 11.4073L53.6302 11.4041L53.5408 11.896ZM50.6428 9.67L51.1405 9.71816L51.1408 9.71395L50.6428 9.67ZM56.1448 9.25L55.7971 9.6093L56.2109 10.0098L56.5493 9.54383L56.1448 9.25ZM59.0428 5.26L59.4473 5.55383L59.7259 5.17034L59.3578 4.87172L59.0428 5.26ZM52.1128 2.992L52.1197 3.49196L52.1234 3.49189L52.1128 2.992ZM51.8188 16.642L51.7343 17.1349L51.7451 17.1365L51.8188 16.642ZM53.9188 19.414L53.46 19.2152L53.4592 19.217L53.9188 19.414ZM46.9048 17.944L47.2493 17.5816L46.8376 17.1902L46.5016 17.6483L46.9048 17.944ZM43.7335 22.025C45.9057 24.9064 48.7997 25.92 51.9448 25.92V24.92C49.0418 24.92 46.4759 24.0016 44.532 21.423L43.7335 22.025ZM51.9448 25.92C54.0739 25.92 56.1562 25.2951 57.7164 24.0165C59.2887 22.728 60.2988 20.8 60.2988 18.28H59.2988C59.2988 20.506 58.4188 22.148 57.0826 23.243C55.7343 24.3479 53.8897 24.92 51.9448 24.92V25.92ZM60.2988 18.28C60.2988 16.0554 59.3464 14.501 58.0251 13.4246C56.724 12.3647 55.0771 11.7754 53.6655 11.4118L53.416 12.3802C54.7764 12.7306 56.2585 13.2753 57.3935 14.1999C58.5081 15.108 59.2988 16.3886 59.2988 18.28H60.2988ZM53.6302 11.4041C53.2137 11.3283 52.517 11.1147 51.9542 10.7789C51.3585 10.4234 51.1076 10.0571 51.1404 9.71816L50.1451 9.62184C50.0519 10.5849 50.7881 11.2476 51.4418 11.6376C52.1285 12.0473 52.9438 12.2957 53.4513 12.3879L53.6302 11.4041ZM51.1408 9.71395C51.1923 9.13008 51.4189 8.81968 51.6946 8.64385C51.9942 8.45271 52.4287 8.37239 52.9601 8.41491C54.0354 8.50093 55.2361 9.06647 55.7971 9.6093L56.4925 8.8907C55.7514 8.17353 54.3271 7.52107 53.0399 7.41809C52.3901 7.36611 51.709 7.44853 51.1568 7.80078C50.5806 8.16831 50.2192 8.78191 50.1447 9.62605L51.1408 9.71395ZM56.5493 9.54383L59.4473 5.55383L58.6382 4.96617L55.7402 8.95617L56.5493 9.54383ZM59.3578 4.87172C57.0138 2.97003 54.156 2.44841 52.1021 2.49211L52.1234 3.49189C54.0175 3.45158 56.6197 3.93797 58.7277 5.64828L59.3578 4.87172ZM52.1059 2.49205C47.3056 2.55841 44.4301 5.71607 44.1905 9.16812C43.9494 12.6406 46.378 16.2166 51.7343 17.1348L51.9032 16.1492C46.9695 15.3034 44.9881 12.1174 45.1881 9.23738C45.3894 6.33693 47.8059 3.55159 52.1197 3.49195L52.1059 2.49205ZM51.7451 17.1365C52.6502 17.2713 53.162 17.6039 53.4031 17.951C53.6335 18.2826 53.6772 18.7138 53.46 19.2152L54.3775 19.6128C54.7063 18.8542 54.6871 18.0464 54.2244 17.3805C53.7725 16.7301 52.9613 16.3067 51.8924 16.1475L51.7451 17.1365ZM53.4592 19.217C53.3423 19.4897 53.1105 19.685 52.7319 19.7889C52.3409 19.8961 51.8138 19.8964 51.1926 19.7648C49.9527 19.5023 48.4697 18.7421 47.2493 17.5816L46.5602 18.3064C47.9018 19.5819 49.5478 20.4387 50.9854 20.7432C51.703 20.8951 52.4018 20.9164 52.9964 20.7533C53.6035 20.5867 54.1172 20.2203 54.3783 19.611L53.4592 19.217ZM46.5016 17.6483L43.7296 21.4283L44.536 22.0197L47.308 18.2397L46.5016 17.6483ZM62.5481 25H62.0481V25.5H62.5481V25ZM68.2601 25V25.5H68.7601V25H68.2601ZM68.2601 8.746L67.8915 8.40814L67.7601 8.55151V8.746H68.2601ZM73.3421 25H72.8421V25.5H73.3421V25ZM78.9281 25V25.5H79.4281V25H78.9281ZM84.0941 25H83.5941V25.5H84.0941V25ZM89.8901 25V25.5H90.3901V25H89.8901ZM76.1561 5.512L75.714 5.74556L76.0871 6.45167L76.5593 5.80768L76.1561 5.512ZM70.3181 2.53L70.3276 2.03008L70.3255 2.03005L70.3181 2.53ZM62.5481 5.218L62.2207 4.84015L62.0481 4.98969V5.218H62.5481ZM62.5481 25.5H68.2601V24.5H62.5481V25.5ZM68.7601 25V8.746H67.7601V25H68.7601ZM68.6287 9.08386C69.1567 8.50786 70.215 8.2896 71.2156 8.50505C72.2318 8.72383 72.8421 9.29523 72.8421 9.964H73.8421C73.8421 8.57477 72.6045 7.78117 71.4261 7.52745C70.2323 7.2704 68.7495 7.47214 67.8915 8.40814L68.6287 9.08386ZM72.8421 9.964V25H73.8421V9.964H72.8421ZM73.3421 25.5H78.9281V24.5H73.3421V25.5ZM79.4281 25V10.048H78.4281V25H79.4281ZM79.4281 10.048C79.4281 9.63079 79.6353 9.30499 80.0083 9.06185C80.3944 8.81024 80.9402 8.66558 81.5132 8.66324C82.0864 8.66092 82.6289 8.80121 83.0116 9.05373C83.3781 9.29562 83.5941 9.63227 83.5941 10.09H84.5941C84.5941 9.24573 84.1644 8.61638 83.5623 8.21908C82.9764 7.83241 82.2274 7.66033 81.5091 7.66325C80.7905 7.66617 80.0449 7.84439 79.4623 8.22408C78.8667 8.61226 78.4281 9.22621 78.4281 10.048H79.4281ZM83.5941 10.09V25H84.5941V10.09H83.5941ZM84.0941 25.5H89.8901V24.5H84.0941V25.5ZM90.3901 25V10.216H89.3901V25H90.3901ZM90.3901 10.216C90.3901 7.5838 89.2904 5.58388 87.6483 4.25216C86.0185 2.93035 83.8758 2.282 81.7841 2.282V3.282C83.6824 3.282 85.5928 3.87265 87.0184 5.02884C88.4318 6.17511 89.3901 7.8922 89.3901 10.216H90.3901ZM81.7841 2.282C79.5982 2.282 77.2502 3.17452 75.7529 5.21632L76.5593 5.80768C77.834 4.06948 79.854 3.282 81.7841 3.282V2.282ZM76.5982 5.27844C75.295 2.81171 72.6225 2.07339 70.3276 2.03009L70.3087 3.02991C72.4657 3.07061 74.6652 3.76029 75.714 5.74556L76.5982 5.27844ZM70.3255 2.03005C67.356 1.98638 64.2103 3.11581 62.2207 4.84015L62.8756 5.59584C64.666 4.04419 67.5683 2.98961 70.3108 3.02994L70.3255 2.03005ZM62.0481 5.218V25H63.0481V5.218H62.0481ZM109.938 23.908L110.114 24.3758L110.438 24.2538V23.908H109.938ZM93.5159 6.688L93.1107 6.39505L92.8513 6.75387L93.1761 7.05478L93.5159 6.688ZM96.3719 9.334L96.0321 9.70078L96.4039 10.0452L96.7432 9.66882L96.3719 9.334ZM104.268 11.56L104.037 12.0036L104.768 12.3836V11.56H104.268ZM104.1 20.716L104.227 21.1995L104.6 21.1014V20.716H104.1ZM101.454 15.382L101.468 15.8819L101.475 15.8816L101.454 15.382ZM104.1 15.76H104.6V15.4215L104.286 15.2958L104.1 15.76ZM100.74 10.388C97.9333 10.388 95.775 11.3449 94.3322 12.8224C92.894 14.2952 92.1959 16.2561 92.2549 18.2111C92.3139 20.1673 93.1309 22.1234 94.7257 23.5885C96.3233 25.056 98.6709 26.004 101.748 26.004V25.004C98.8819 25.004 96.788 24.125 95.4023 22.852C94.0138 21.5766 93.3057 19.8787 93.2544 18.1809C93.2032 16.4819 93.8097 14.7888 95.0477 13.5211C96.281 12.2581 98.1706 11.388 100.74 11.388V10.388ZM101.748 26.004C104.465 26.004 107.507 25.359 110.114 24.3758L109.762 23.4402C107.245 24.389 104.323 25.004 101.748 25.004V26.004ZM110.438 23.908V10.426H109.438V23.908H110.438ZM110.438 10.426C110.438 5.96334 107.215 3.31981 103.505 2.61625C99.8141 1.91629 95.4949 3.09727 93.1107 6.39505L93.9211 6.98094C96.0309 4.06273 99.9227 2.95471 103.319 3.59874C106.696 4.23918 109.438 6.57265 109.438 10.426H110.438ZM93.1761 7.05478L96.0321 9.70078L96.7117 8.96722L93.8557 6.32122L93.1761 7.05478ZM96.7432 9.66882C97.7874 8.51082 99.5958 7.85771 101.115 8.07544C101.862 8.18248 102.514 8.49568 102.981 9.03507C103.446 9.57292 103.768 10.3829 103.768 11.56H104.768C104.768 10.1961 104.391 9.13708 103.737 8.38081C103.084 7.62607 102.195 7.22001 101.257 7.08556C99.406 6.82029 97.2665 7.59518 96.0006 8.99918L96.7432 9.66882ZM104.499 11.1164C103.338 10.5127 101.893 10.388 100.74 10.388V11.388C101.855 11.388 103.098 11.5153 104.037 12.0036L104.499 11.1164ZM103.973 20.2325C103.224 20.4295 102.47 20.51 101.664 20.51V21.51C102.538 21.51 103.38 21.4225 104.227 21.1995L103.973 20.2325ZM101.664 20.51C99.6711 20.51 98.7373 19.312 98.6879 18.2206C98.6626 17.6612 98.862 17.1008 99.2982 16.6705C99.7332 16.2413 100.437 15.9105 101.468 15.8818L101.44 14.8822C100.203 14.9165 99.2424 15.3207 98.5959 15.9586C97.9506 16.5953 97.6513 17.4341 97.6889 18.2659C97.7655 19.957 99.2047 21.51 101.664 21.51V20.51ZM101.475 15.8816C102.427 15.8419 103.362 16.0035 103.914 16.2242L104.286 15.2958C103.577 15.0125 102.497 14.8381 101.433 14.8824L101.475 15.8816ZM103.6 15.76V20.716H104.6V15.76H103.6ZM130.118 23.908L130.294 24.3758L130.618 24.2538V23.908H130.118ZM113.696 6.688L113.29 6.39505L113.031 6.75387L113.356 7.05478L113.696 6.688ZM116.552 9.334L116.212 9.70078L116.584 10.0452L116.923 9.66882L116.552 9.334ZM124.448 11.56L124.217 12.0036L124.948 12.3836V11.56H124.448ZM124.28 20.716L124.407 21.1995L124.78 21.1014V20.716H124.28ZM121.634 15.382L121.647 15.8819L121.654 15.8816L121.634 15.382ZM124.28 15.76H124.78V15.4215L124.465 15.2958L124.28 15.76ZM120.92 10.388C118.113 10.388 115.955 11.3449 114.512 12.8224C113.074 14.2952 112.376 16.2561 112.435 18.2111C112.494 20.1673 113.311 22.1234 114.905 23.5885C116.503 25.056 118.851 26.004 121.928 26.004V25.004C119.062 25.004 116.968 24.125 115.582 22.852C114.193 21.5766 113.485 19.8787 113.434 18.1809C113.383 16.4819 113.989 14.7888 115.227 13.5211C116.461 12.2581 118.35 11.388 120.92 11.388V10.388ZM121.928 26.004C124.644 26.004 127.686 25.359 130.294 24.3758L129.941 23.4402C127.425 24.389 124.503 25.004 121.928 25.004V26.004ZM130.618 23.908V10.426H129.618V23.908H130.618ZM130.618 10.426C130.618 5.96334 127.395 3.31981 123.685 2.61625C119.994 1.91629 115.675 3.09727 113.29 6.39505L114.101 6.98094C116.211 4.06273 120.102 2.95471 123.499 3.59874C126.876 4.23918 129.618 6.57265 129.618 10.426H130.618ZM113.356 7.05478L116.212 9.70078L116.891 8.96722L114.035 6.32122L113.356 7.05478ZM116.923 9.66882C117.967 8.51082 119.776 7.85771 121.295 8.07544C122.042 8.18248 122.694 8.49568 123.161 9.03507C123.626 9.57292 123.948 10.3829 123.948 11.56H124.948C124.948 10.1961 124.571 9.13708 123.917 8.38081C123.264 7.62607 122.375 7.22001 121.437 7.08556C119.586 6.82029 117.446 7.59518 116.18 8.99918L116.923 9.66882ZM124.678 11.1164C123.517 10.5127 122.072 10.388 120.92 10.388V11.388C122.035 11.388 123.278 11.5153 124.217 12.0036L124.678 11.1164ZM124.152 20.2325C123.404 20.4295 122.649 20.51 121.844 20.51V21.51C122.718 21.51 123.56 21.4225 124.407 21.1995L124.152 20.2325ZM121.844 20.51C119.851 20.51 118.917 19.312 118.868 18.2206C118.842 17.6612 119.042 17.1008 119.478 16.6705C119.913 16.2413 120.616 15.9105 121.647 15.8818L121.62 14.8822C120.383 14.9165 119.422 15.3207 118.776 15.9586C118.13 16.5953 117.831 17.4341 117.869 18.2659C117.945 19.957 119.384 21.51 121.844 21.51V20.51ZM121.654 15.8816C122.607 15.8419 123.542 16.0035 124.094 16.2242L124.465 15.2958C123.757 15.0125 122.676 14.8381 121.613 14.8824L121.654 15.8816ZM123.78 15.76V20.716H124.78V15.76H123.78ZM134.365 25H133.865V25.5H134.365V25ZM140.204 25V25.5H140.704V25H140.204ZM140.204 8.2L139.959 7.76375L139.704 7.90694V8.2H140.204ZM145.915 25H145.415V25.5H145.915V25ZM151.712 25V25.5H152.212V25H151.712ZM134.365 4.42L134.145 3.97122L133.865 4.10854V4.42H134.365ZM134.365 25.5H140.204V24.5H134.365V25.5ZM140.704 25V8.2H139.704V25H140.704ZM140.448 8.63625C141.382 8.11328 142.67 7.96267 143.703 8.27442C144.212 8.42821 144.637 8.68742 144.933 9.04469C145.225 9.39654 145.415 9.87203 145.415 10.51H146.415C146.415 9.65697 146.155 8.95121 145.703 8.40662C145.257 7.86746 144.647 7.51504 143.991 7.31707C142.693 6.92533 141.125 7.11072 139.959 7.76375L140.448 8.63625ZM145.415 10.51V25H146.415V10.51H145.415ZM145.915 25.5H151.712V24.5H145.915V25.5ZM152.212 25V10.468H151.212V25H152.212ZM152.212 10.468C152.212 7.45823 150.995 5.32009 149.101 3.95169C147.23 2.59973 144.742 2.03 142.219 2.03V3.03C144.611 3.03 146.869 3.57327 148.515 4.76231C150.139 5.93491 151.212 7.76577 151.212 10.468H152.212ZM142.219 2.03C139.49 2.03 136.601 2.76496 134.145 3.97122L134.586 4.86878C136.918 3.72304 139.657 3.03 142.219 3.03V2.03ZM133.865 4.42V25H134.865V4.42H133.865Z" fill="#207DC1"/>
</svg>
