<svg width="1130" height="1324" viewBox="0 0 1130 1324" fill="none" xmlns="http://www.w3.org/2000/svg">
<path d="M1297.64 784.489C1262.1 889.438 1178.43 989.838 1054.58 1103.56C931.692 1216.1 769.764 1341.75 641.84 1321.08C515.061 1300.19 423.255 1131.79 286.616 1010.05C149.976 888.323 -30.3521 813.062 5.63936 730.383C40.4849 647.911 292.796 557.816 431.316 486.158C570.983 414.295 598.182 361.648 656.204 269.926C715.372 177.998 805.364 46.9948 915.968 10.8412C1026.75 -24.3282 1158.14 35.3516 1226.62 126.671C1295.09 217.99 1300.83 341.932 1310.87 456.971C1319.78 572.215 1333.35 680.524 1297.64 784.489Z" fill="url(#paint0_linear_49_76)"/>
<defs>
<linearGradient id="paint0_linear_49_76" x1="494.5" y1="513" x2="1100.5" y2="839" gradientUnits="userSpaceOnUse">
<stop stop-color="#207DC1"/>
<stop offset="1" stop-color="#40A0D6"/>
</linearGradient>
</defs>
</svg>
